<?xml version="1.0" standalone="no"?>
<!DOCTYPE svg PUBLIC "-//W3C//DTD SVG 20010904//EN"
 "http://www.w3.org/TR/2001/REC-SVG-20010904/DTD/svg10.dtd">
<svg version="1.0" xmlns="http://www.w3.org/2000/svg"
 width="398.000000pt" height="398.000000pt" viewBox="0 0 398.000000 398.000000"
 preserveAspectRatio="xMidYMid meet">
<metadata>
Created by potrace 1.11, written by Peter Selinger 2001-2013
</metadata>
<g transform="translate(0.000000,398.000000) scale(0.100000,-0.100000)"
fill="#000000" stroke="none">
<path d="M1923 3225 c-10 -25 -21 -45 -24 -45 -3 0 -11 12 -18 28 l-13 27 -48
-52 c-47 -51 -48 -52 -54 -27 l-7 25 -37 -31 c-20 -17 -75 -58 -122 -91 -47
-34 -97 -73 -112 -87 -16 -14 -28 -20 -28 -14 0 20 -37 -4 -100 -63 -30 -29
-60 -50 -67 -48 -14 5 -95 -99 -130 -168 -19 -40 -26 -67 -26 -113 0 -34 -3
-69 -8 -78 -25 -47 -44 -159 -53 -299 -3 -46 16 -252 29 -320 6 -34 5 -36 -32
-47 -77 -24 -108 -116 -87 -261 20 -136 35 -173 115 -282 47 -64 81 -88 127
-92 17 -1 23 -11 32 -50 5 -26 10 -55 10 -63 0 -31 41 -130 74 -179 19 -27 57
-75 84 -105 48 -52 49 -55 29 -63 -35 -13 -75 -57 -82 -89 -4 -17 -16 -33 -28
-37 -35 -14 -56 -43 -60 -85 -3 -34 -9 -41 -58 -67 -30 -16 -62 -39 -72 -51
-17 -20 -17 -21 0 -33 10 -6 68 -33 130 -58 432 -180 927 -179 1356 4 67 28
128 56 135 62 18 14 -19 51 -79 78 -42 20 -47 25 -52 62 -7 52 -37 91 -71 95
-19 2 -33 14 -44 33 -23 42 -43 64 -71 78 l-23 13 38 37 c106 102 156 188 182
313 20 97 26 108 55 108 35 0 72 31 126 105 74 101 97 169 108 307 10 134 -28
211 -109 224 -29 5 -37 10 -34 23 21 67 35 242 32 376 -4 138 -19 211 -62 305
-15 30 -32 83 -39 117 -8 33 -25 79 -39 102 -35 55 -198 215 -206 201 -4 -6
-53 22 -124 70 -64 44 -121 80 -126 80 -6 0 -10 -7 -10 -15 0 -17 -35 3 -138
78 -29 21 -56 35 -61 32 -5 -3 -24 13 -41 35 -17 22 -35 40 -40 40 -4 0 -16
-20 -27 -45z"/>
</g>
</svg>
